# xmcd
#
# Track frame offsets: 
#        150
#        35304
#        70772
#        98039
#        121276
#        142570
#        165971
#
# Disc length: 2645 seconds
#
# Revision: 0
# Processed by: cddbd v1.5.2PL0 Copyright (c) Steve Scherf et al.
# Submitted via: ExactAudioCopy v0.99pb3
#
DISCID=480a5307
DTITLE=Jay McShann - The Big Apple Bash
DYEAR=2008
DGENRE=Blues
TTITLE0=Crazy Legs and Friday Strut
TTITLE1=Georgia On My Mind
TTITLE2=Dickie's Dream
TTITLE3=Ain't Misbehavin'
TTITLE4=I'd Rather Drink Muddy Water
TTITLE5=Blue Feeling
TTITLE6=Jumpin' The Blues
EXTD=
EXTT0=
EXTT1=
EXTT2=
EXTT3=
EXTT4=
EXTT5=
EXTT6=
PLAYORDER=
